# xmcd
#
# Track frame offsets:
#	150
#	5856
#	14457
#	28642
#	42725
#	54854
#	70737
#	86602
#	100048
#	112484
#	124376
#	139272
#	152523
#	168553
#	182510
#	195043
#	207690
#	221812
#	236746
#	258744
#	277652
#	290305
#	304755
#	316065
#	322901
#	328029
#	332689
#	345809
#
# Disc length: 4800 seconds
#
# Revision: 1
# Processed by: cddbd v1.5.2PL0 Copyright (c) Steve Scherf et al.
# Submitted via: audiograbber 1.83.01
#
DISCID=9812be1c
DTITLE=The Campbells and Vriende - Country Treffers
DYEAR=2011
DGENRE=
TTITLE0=Inleiding
TTITLE1=Let your love flow
TTITLE2=Country Roads
TTITLE3=Getoor
TTITLE4=Hillbilly Rock, Hillbilly Roll
TTITLE5=Living next door to Alice
TTITLE6=Oh Lord it's hard to be humble
TTITLE7=Rooi rok bokkie
TTITLE8=Clap your hands
TTITLE9=Lucky Lips
TTITLE10=Cotton Fields
TTITLE11=Youre my best friend
TTITLE12=Is this the way to Amarillo
TTITLE13=Sjoe Sjoe
TTITLE14=Mamma Mia
TTITLE15=Blue Eyes crying in the rain
TTITLE16=Achy Breaky heart
TTITLE17=Bietjie Bietjie lam
TTITLE18=Midnight special
TTITLE19=One last kiss
TTITLE20=Let me be there
TTITLE21=Komaan kom dans
TTITLE22=Dankie
TTITLE23=Red river rosie
TTITLE24=Waltzing Maria
TTITLE25=Duitsweswals
TTITLE26=Jambalaya
TTITLE27=Sewe Soene
EXTD=
EXTT0=
EXTT1=
EXTT2=
EXTT3=
EXTT4=
EXTT5=
EXTT6=
EXTT7=
EXTT8=
EXTT9=
EXTT10=
EXTT11=
EXTT12=
EXTT13=
EXTT14=
EXTT15=
EXTT16=
EXTT17=
EXTT18=
EXTT19=
EXTT20=
EXTT21=
EXTT22=
EXTT23=
EXTT24=
EXTT25=
EXTT26=
EXTT27=
PLAYORDER=
